<svg width="24" height="24" viewBox="0 0 24 24" fill="none" xmlns="http://www.w3.org/2000/svg">
<path d="M14.13 11.339C14.2238 10.9686 14.2198 10.5802 14.1183 10.2119C14.0169 9.8435 13.8215 9.5078 13.5514 9.23763C13.2812 8.96747 12.9455 8.7721 12.5771 8.67067C12.2088 8.56924 11.8204 8.56522 11.45 8.659C10.68 8.849 10.05 9.479 9.86 10.249C9.76622 10.6194 9.77024 11.0078 9.87167 11.3761C9.9731 11.7445 10.1685 12.0802 10.4386 12.3504C10.7088 12.6205 11.0445 12.8159 11.4129 12.9173C11.7812 13.0188 12.1696 13.0228 12.54 12.929C13.32 12.739 13.95 12.109 14.13 11.339Z" fill="white"/>
<path d="M6.01999 17.97C5.83999 17.97 5.64999 17.9 5.50999 17.77C4.54967 16.8783 3.78327 15.7983 3.25853 14.5974C2.7338 13.3966 2.46197 12.1005 2.45999 10.79C2.45999 5.53 6.73999 1.25 12 1.25C17.26 1.25 21.54 5.53 21.54 10.79C21.54 13.45 20.47 15.91 18.53 17.74C18.23 18.02 17.75 18.01 17.47 17.71C17.19 17.41 17.2 16.93 17.5 16.65C18.3049 15.9035 18.9461 14.9982 19.3833 13.9913C19.8205 12.9844 20.0441 11.8977 20.04 10.8C20.04 6.37 16.43 2.76 12 2.76C7.56999 2.76 3.95999 6.37 3.95999 10.8C3.95999 13.06 4.86999 15.14 6.52999 16.68C6.82999 16.96 6.84999 17.44 6.56999 17.74C6.42434 17.8865 6.22655 17.9692 6.01999 17.97V17.97Z" fill="white"/>
<path d="M16 15.299C15.8541 15.2989 15.7115 15.256 15.5897 15.1756C15.468 15.0952 15.3724 14.981 15.315 14.8469C15.2575 14.7128 15.2406 14.5648 15.2664 14.4212C15.2922 14.2776 15.3595 14.1447 15.46 14.039C16.29 13.159 16.75 11.999 16.75 10.799C16.75 8.179 14.62 6.059 12.01 6.059C10.7537 6.06164 9.54957 6.56188 8.66122 7.45023C7.77287 8.33858 7.27263 9.54269 7.26999 10.799C7.26999 12.009 7.72999 13.159 8.55999 14.039C8.83999 14.339 8.82999 14.819 8.52999 15.099C8.22999 15.389 7.74999 15.369 7.46999 15.069C6.37975 13.9144 5.77165 12.387 5.76999 10.799C5.76999 7.359 8.56999 4.559 12.01 4.559C15.45 4.559 18.25 7.359 18.25 10.799C18.25 12.389 17.65 13.909 16.55 15.069C16.4043 15.2155 16.2065 15.2982 16 15.299V15.299ZM10.3 16.66L8.85999 18.45C7.71999 19.88 8.73999 22 10.56 22H13.43C15.26 22 16.28 19.88 15.13 18.46L13.69 16.67C13.4886 16.4134 13.2316 16.2058 12.9385 16.0627C12.6453 15.9197 12.3236 15.8448 11.9974 15.8439C11.6712 15.8429 11.349 15.9158 11.0551 16.0572C10.7611 16.1985 10.5029 16.4046 10.3 16.66V16.66Z" fill="white"/>
</svg>
