<svg width="30" height="30" viewBox="0 0 30 30" fill="none" xmlns="http://www.w3.org/2000/svg">
<path opacity="0.4" d="M20.55 3.8775C18.2875 3.8775 16.2625 4.9775 15 6.665C14.3552 5.80102 13.5178 5.09924 12.5544 4.61537C11.591 4.1315 10.5281 3.87886 9.45 3.8775C5.6125 3.8775 2.5 7.0025 2.5 10.865C2.5 12.3525 2.7375 13.7275 3.15 15.0025C5.125 21.2525 11.2125 24.99 14.225 26.015C14.65 26.165 15.35 26.165 15.775 26.015C18.7875 24.99 24.875 21.2525 26.85 15.0025C27.2625 13.7275 27.5 12.3525 27.5 10.865C27.5 7.0025 24.3875 3.8775 20.55 3.8775Z" fill="white"/>
<path d="M18.55 11.4513C17.425 10.3263 16.5375 10.6888 15.775 11.4513L11.35 15.8763C11.175 16.0513 11.0125 16.3763 10.975 16.6138L10.7375 18.3013C10.65 18.9138 11.075 19.3388 11.6875 19.2513L13.375 19.0138C13.6125 18.9763 13.95 18.8138 14.1125 18.6388L18.5375 14.2138C19.3125 13.4638 19.675 12.5763 18.55 11.4513Z" fill="black"/>
</svg>
