<svg width="22" height="22" viewBox="0 0 22 22" fill="none" xmlns="http://www.w3.org/2000/svg">
<path opacity="0.6" d="M15.07 2.84351C13.4109 2.84351 11.9259 3.65017 11 4.88767C10.5272 4.25409 9.91311 3.73945 9.20661 3.38461C8.50012 3.02977 7.72064 2.8445 6.93004 2.84351C4.11587 2.84351 1.83337 5.13517 1.83337 7.96767C1.83337 9.05851 2.00754 10.0668 2.31004 11.0018C3.75837 15.5852 8.22254 18.326 10.4317 19.0777C10.7434 19.1877 11.2567 19.1877 11.5684 19.0777C13.7775 18.326 18.2417 15.5852 19.69 11.0018C19.9925 10.0668 20.1667 9.05851 20.1667 7.96767C20.1667 5.13517 17.8842 2.84351 15.07 2.84351Z" fill="url(#paint0_linear_218_505)"/>
<path d="M13.6034 8.39759C12.7784 7.57259 12.1275 7.83842 11.5684 8.39759L8.32338 11.6426C8.19505 11.7709 8.07588 12.0093 8.04838 12.1834L7.87422 13.4209C7.81005 13.8701 8.12172 14.1818 8.57088 14.1176L9.80838 13.9434C9.98255 13.9159 10.23 13.7968 10.3492 13.6684L13.5942 10.4234C14.1625 9.87342 14.4284 9.22259 13.6034 8.39759V8.39759Z" fill="white"/>
<defs>
<linearGradient id="paint0_linear_218_505" x1="11" y1="2.84351" x2="11" y2="19.1602" gradientUnits="userSpaceOnUse">
<stop stop-color="#F401DC"/>
<stop offset="1" stop-color="#F956B8" stop-opacity="0.9"/>
</linearGradient>
</defs>
</svg>
