<svg width="30" height="30" viewBox="0 0 30 30" fill="none" xmlns="http://www.w3.org/2000/svg">
<path d="M15 27.065C14.725 27.065 14.3125 27.04 13.925 26.9025C9.15 25.265 1.5625 19.465 1.5625 10.865C1.5625 6.49001 5.1 2.94001 9.45 2.94001C11.5625 2.94001 13.5375 3.76501 15 5.24001C15.726 4.50734 16.5907 3.92661 17.5436 3.53172C18.4965 3.13682 19.5185 2.93568 20.55 2.94001C24.9 2.94001 28.4375 6.49001 28.4375 10.865C28.4375 12.3775 28.2125 13.865 27.7625 15.29C27.7288 15.4112 27.6711 15.5244 27.5928 15.6229C27.5145 15.7213 27.4172 15.803 27.3066 15.863C27.1961 15.923 27.0746 15.9602 26.9493 15.9723C26.8241 15.9844 26.6978 15.9712 26.5778 15.9334C26.4578 15.8957 26.3466 15.8341 26.2509 15.7525C26.1552 15.6709 26.0768 15.5708 26.0206 15.4583C25.9644 15.3458 25.9313 15.2231 25.9235 15.0975C25.9157 14.972 25.9332 14.8462 25.975 14.7275C26.3625 13.49 26.5625 12.19 26.5625 10.8775C26.5625 7.54001 23.8625 4.82751 20.55 4.82751C18.65 4.82751 16.8875 5.71501 15.75 7.24001C15.4 7.71501 14.6 7.71501 14.25 7.24001C13.6954 6.48934 12.9719 5.87978 12.138 5.46066C11.3041 5.04154 10.3833 4.82464 9.45 4.82751C6.1375 4.82751 3.4375 7.54001 3.4375 10.8775C3.4375 19.4275 11.65 24.165 14.5375 25.1525C14.6125 25.1775 14.7875 25.215 15 25.215C15.5125 25.215 15.9375 25.64 15.9375 26.1525C15.9375 26.665 15.5125 27.065 15 27.065Z" fill="black"/>
<path d="M19.7749 28.4375C19.2999 28.4375 18.8499 28.2625 18.5249 27.9375C18.1374 27.55 17.9624 26.9875 18.0499 26.4L18.2874 24.7125C18.3499 24.275 18.6124 23.75 18.9249 23.4375L23.3499 19.0125C23.9499 18.4125 24.5374 18.1 25.1749 18.0375C25.9624 17.9625 26.7249 18.2875 27.4499 19.0125C28.1749 19.7375 28.4999 20.5 28.4249 21.2875C28.3624 21.9125 28.0374 22.5125 27.4499 23.1125L23.0249 27.5375C22.7124 27.85 22.1999 28.1125 21.7624 28.175L20.0749 28.4125C19.9624 28.425 19.8749 28.4375 19.7749 28.4375ZM25.3874 19.9H25.3499C25.1749 19.9125 24.9374 20.0625 24.6749 20.3375L20.2499 24.7625C20.1994 24.8238 20.165 24.8969 20.1499 24.975L19.9249 26.5375L21.4874 26.3125C21.5374 26.3 21.6624 26.2375 21.6999 26.2L26.1249 21.775C26.3874 21.5125 26.5499 21.275 26.5624 21.1C26.5874 20.85 26.3374 20.55 26.1249 20.3375C25.9249 20.1375 25.6374 19.9 25.3874 19.9Z" fill="black"/>
<path d="M26.15 24.0262C26.0625 24.0262 25.975 24.0137 25.9 23.9887C25.0844 23.7573 24.3416 23.3211 23.7421 22.7216C23.1427 22.1221 22.7065 21.3793 22.475 20.5637C22.3375 20.0637 22.625 19.5512 23.125 19.4137C23.625 19.2762 24.1375 19.5637 24.2875 20.0637C24.575 21.0887 25.3875 21.9012 26.4125 22.1887C26.9125 22.3262 27.2 22.8512 27.0625 23.3387C26.9375 23.7512 26.5625 24.0262 26.15 24.0262Z" fill="black"/>
</svg>
