<svg width="30" height="30" viewBox="0 0 30 30" fill="none" xmlns="http://www.w3.org/2000/svg">
<path d="M22.2375 28.4225H7.7625C4.3375 28.4225 1.5625 25.635 1.5625 22.21V12.9475C1.5625 11.2475 2.6125 9.11001 3.9625 8.06001L10.7 2.81001C12.725 1.23501 15.9625 1.16001 18.0625 2.63501L25.7875 8.04751C27.275 9.08501 28.4375 11.31 28.4375 13.1225V22.2225C28.4375 25.635 25.6625 28.4225 22.2375 28.4225ZM11.85 4.28501L5.1125 9.53501C4.225 10.235 3.4375 11.8225 3.4375 12.9475V22.21C3.4375 23.3582 3.89276 24.4596 4.7035 25.2727C5.51424 26.0858 6.61429 26.5442 7.7625 26.5475H22.2375C24.625 26.5475 26.5625 24.61 26.5625 22.2225V13.1225C26.5625 11.9225 25.7 10.26 24.7125 9.58501L16.9875 4.17251C15.5625 3.17251 13.2125 3.22251 11.85 4.28501Z" fill="black"/>
<path d="M16.875 23.4375H13.125C10.5375 23.4375 8.4375 21.3375 8.4375 18.75V15C8.4375 12.4125 10.5375 10.3125 13.125 10.3125H16.875C19.4625 10.3125 21.5625 12.4125 21.5625 15V18.75C21.5625 21.3375 19.4625 23.4375 16.875 23.4375ZM13.125 12.1875C11.575 12.1875 10.3125 13.45 10.3125 15V18.75C10.3125 20.3 11.575 21.5625 13.125 21.5625H16.875C18.425 21.5625 19.6875 20.3 19.6875 18.75V15C19.6875 13.45 18.425 12.1875 16.875 12.1875H13.125Z" fill="black"/>
<path d="M15 23.4375C14.4875 23.4375 14.0625 23.0125 14.0625 22.5V11.25C14.0625 10.7375 14.4875 10.3125 15 10.3125C15.5125 10.3125 15.9375 10.7375 15.9375 11.25V22.5C15.9375 23.0125 15.5125 23.4375 15 23.4375Z" fill="black"/>
<path d="M20.625 17.8125H9.375C8.8625 17.8125 8.4375 17.3875 8.4375 16.875C8.4375 16.3625 8.8625 15.9375 9.375 15.9375H20.625C21.1375 15.9375 21.5625 16.3625 21.5625 16.875C21.5625 17.3875 21.1375 17.8125 20.625 17.8125Z" fill="black"/>
</svg>
