<svg width="24" height="24" viewBox="0 0 24 24" fill="none" xmlns="http://www.w3.org/2000/svg">
<path d="M12.7 16.88H13.4C14.55 16.88 15.49 15.94 15.49 14.79V14.09H12.7V16.88ZM8.51001 14.79C8.51001 15.94 9.45001 16.88 10.6 16.88H11.3V14.09H8.51001V14.79ZM8.51001 12V12.7H11.3V9.91H10.6C9.45001 9.91 8.51001 10.85 8.51001 12V12Z" fill="#ced6db"/>
<path d="M20.03 6.82201L14.28 2.79201C12.71 1.69201 10.31 1.75201 8.8 2.92201L3.79 6.83201C2.78 7.61201 2 9.21201 2 10.472V17.372C2 19.922 4.07 22.002 6.61 22.002H17.38C18.6036 21.9994 19.7761 21.5115 20.6404 20.6453C21.5046 19.7792 21.99 18.6056 21.99 17.382V10.602C22 9.25201 21.13 7.59201 20.03 6.82201V6.82201ZM16.88 14.792C16.8774 15.7168 16.5088 16.603 15.8549 17.2569C15.201 17.9108 14.3148 18.2794 13.39 18.282H10.6C8.68 18.282 7.11 16.722 7.11 14.792V12.002C7.11264 11.0772 7.48118 10.1911 8.13511 9.53713C8.78904 8.8832 9.67521 8.51465 10.6 8.51201H13.39C15.31 8.51201 16.88 10.072 16.88 12.002V14.792V14.792Z" fill="#ced6db"/>
<path d="M13.4 9.91H12.7V12.7H15.49V12C15.49 10.85 14.55 9.91 13.4 9.91V9.91Z" fill="#ced6db"/>
</svg>
