<svg width="30" height="30" viewBox="0 0 30 30" fill="none" xmlns="http://www.w3.org/2000/svg">
<path opacity="0.4" d="M25.0375 8.52749L17.85 3.48999C15.8875 2.11499 12.8875 2.18999 11 3.65249L4.7375 8.53999C3.475 9.51499 2.5 11.515 2.5 13.09V21.715C2.5 24.9025 5.0875 27.5025 8.2625 27.5025H21.725C23.2545 27.4992 24.7201 26.8893 25.8005 25.8066C26.8808 24.724 27.4875 23.2569 27.4875 21.7275V13.2525C27.5 11.565 26.4125 9.48999 25.0375 8.52749Z" fill="white"/>
<path d="M16.75 10.64H13.25C10.85 10.64 8.88751 12.59 8.88751 15.0025V18.49C8.89081 19.646 9.35149 20.7537 10.1689 21.5711C10.9863 22.3885 12.094 22.8492 13.25 22.8525H16.7375C19.1375 22.8525 21.1 20.9025 21.1 18.49V15.0025C21.1 12.6025 19.15 10.64 16.75 10.64ZM19.3625 15.0025V15.8775H15.875V12.39H16.75C18.1875 12.39 19.3625 13.565 19.3625 15.0025ZM13.25 12.39H14.125V15.8775H10.6375V15.0025C10.6375 13.565 11.8125 12.39 13.25 12.39ZM10.6375 18.49V17.615H14.125V21.1025H13.25C11.8125 21.1025 10.6375 19.9275 10.6375 18.49ZM16.75 21.1025H15.875V17.615H19.3625V18.49C19.3625 19.9275 18.1875 21.1025 16.75 21.1025Z" fill="black"/>
</svg>
