<svg width="30" height="30" viewBox="0 0 30 30" color="#ced6db" fill="none" xmlns="http://www.w3.org/2000/svg">
<path d="M11.2488 23.75C11.2488 24.8 11.4113 25.825 11.7113 26.775C6.91128 25.1125 3.28628 20.7 2.91128 15.5375C2.53628 10.05 5.69878 4.92499 10.8113 2.77499C12.1363 2.22499 12.8113 2.62499 13.0988 2.91249C13.3738 3.18749 13.7613 3.84999 13.2113 5.11249C12.6529 6.40694 12.3677 7.80275 12.3738 9.21249C12.3863 11.7625 13.3863 14.125 15.0113 15.9375C13.8369 16.8729 12.8888 18.0612 12.2373 19.4138C11.5859 20.7665 11.248 22.2486 11.2488 23.75Z" fill="currentColor"/>
<path opacity="0.5" d="M26.5125 22.15C25.2903 23.808 23.695 25.1551 21.8558 26.0823C20.0165 27.0095 17.9848 27.4909 15.925 27.4875C15.725 27.4875 15.525 27.475 15.325 27.4625C14.075 27.4125 12.8625 27.175 11.7125 26.775C11.4125 25.825 11.25 24.8 11.25 23.75C11.25 20.5875 12.725 17.7625 15.0125 15.9375C15.9456 16.9892 17.0802 17.8431 18.3491 18.4485C19.618 19.054 20.9955 19.3988 22.4 19.4625C23.1875 19.5 23.975 19.4375 24.75 19.3C26.15 19.05 26.7125 19.575 26.9125 19.9125C27.125 20.25 27.35 20.9875 26.5125 22.15Z" fill="currentColor"/>
</svg>
