<svg width="122" height="26" viewBox="0 0 122 26" fill="none" xmlns="http://www.w3.org/2000/svg">
<path d="M14.31 25H18.265V13.625C18.265 8.235 14.87 5.4 10.355 5.4C8.045 5.4 5.91 6.345 4.615 7.92V5.715H0.625V25H4.615V14.22C4.615 10.685 6.54 8.865 9.48 8.865C12.385 8.865 14.31 10.685 14.31 14.22V25ZM41.7295 15.34C41.7295 9.285 37.3895 5.4 31.8945 5.4C26.3995 5.4 22.0595 9.285 22.0595 15.34C22.0595 21.395 26.2245 25.315 31.7195 25.315C37.2495 25.315 41.7295 21.395 41.7295 15.34ZM26.1195 15.34C26.1195 10.965 28.8145 8.865 31.8245 8.865C34.7995 8.865 37.6345 10.965 37.6345 15.34C37.6345 19.715 34.6945 21.85 31.7195 21.85C28.7095 21.85 26.1195 19.715 26.1195 15.34ZM59.3588 25H63.3138V13.625C63.3138 8.235 59.9188 5.4 55.4038 5.4C53.0938 5.4 50.9588 6.345 49.6638 7.92V5.715H45.6738V25H49.6638V14.22C49.6638 10.685 51.5888 8.865 54.5288 8.865C57.4338 8.865 59.3588 10.685 59.3588 14.22V25ZM69.0333 19.645C69.0333 23.565 71.1683 25 74.5983 25H77.7483V21.675H75.2983C73.6183 21.675 73.0583 21.08 73.0583 19.645V8.97H77.7483V5.715H73.0583V0.919999H69.0333V5.715H66.7583V8.97H69.0333V19.645ZM99.8008 15.34C99.8008 9.285 95.4608 5.4 89.9658 5.4C84.4708 5.4 80.1308 9.285 80.1308 15.34C80.1308 21.395 84.2958 25.315 89.7908 25.315C95.3208 25.315 99.8008 21.395 99.8008 15.34ZM84.1908 15.34C84.1908 10.965 86.8858 8.865 89.8958 8.865C92.8708 8.865 95.7058 10.965 95.7058 15.34C95.7058 19.715 92.7658 21.85 89.7908 21.85C86.7808 21.85 84.1908 19.715 84.1908 15.34ZM117.43 25H121.385V13.625C121.385 8.235 117.99 5.4 113.475 5.4C111.165 5.4 109.03 6.345 107.735 7.92V5.715H103.745V25H107.735V14.22C107.735 10.685 109.66 8.865 112.6 8.865C115.505 8.865 117.43 10.685 117.43 14.22V25Z" fill="#3E3D3D"/>
</svg>
