<svg width="23" height="23" viewBox="0 0 23 23" fill="none" xmlns="http://www.w3.org/2000/svg">
<path d="M16.7613 9.20003L5.36671 16.0713C4.69587 16.4738 3.83337 15.9946 3.83337 15.2088V7.54211C3.83337 4.19753 7.44629 2.10836 10.35 3.77586L14.7488 6.30586L16.7517 7.45586C17.413 7.84878 17.4225 8.80711 16.7613 9.20003ZM17.3353 14.8159L13.4541 17.0584L9.58242 19.2913C8.19283 20.0867 6.62117 19.9238 5.48075 19.1188C4.92492 18.7354 4.992 17.8825 5.57658 17.5375L17.757 10.235C18.332 9.89003 19.0891 10.2159 19.1945 10.8771C19.4341 12.3625 18.8208 13.9629 17.3353 14.8159Z" fill="#E8F0F8" fill-opacity="0.9"/>
</svg>
