<svg width="24" height="24" viewBox="0 0 24 24" fill="none" xmlns="http://www.w3.org/2000/svg">
<path d="M22 22H2C1.59 22 1.25 21.66 1.25 21.25C1.25 20.84 1.59 20.5 2 20.5H22C22.41 20.5 22.75 20.84 22.75 21.25C22.75 21.66 22.41 22 22 22Z" fill="white"/>
<path d="M9.75 3.99998V22H14.25V3.99998C14.25 2.89998 13.8 1.99998 12.45 1.99998H11.55C10.2 1.99998 9.75 2.89998 9.75 3.99998ZM3 9.99999V22H7V9.99999C7 8.89999 6.6 7.99999 5.4 7.99999H4.6C3.4 7.99999 3 8.89999 3 9.99999ZM17 15V22H21V15C21 13.9 20.6 13 19.4 13H18.6C17.4 13 17 13.9 17 15Z" fill="white"/>
</svg>
