<svg width="24" height="24" viewBox="0 0 24 24" fill="none" xmlns="http://www.w3.org/2000/svg">
<path d="M16.19 2H7.81C4.17 2 2 4.17 2 7.81V16.18C2 19.83 4.17 22 7.81 22H16.18C19.82 22 21.99 19.83 21.99 16.19V7.81C22 4.17 19.83 2 16.19 2ZM7.67 5.5C7.67 5.09 8.01 4.75 8.42 4.75C8.83 4.75 9.17 5.09 9.17 5.5V9.4C9.17 9.81 8.83 10.15 8.42 10.15C8.01 10.15 7.67 9.81 7.67 9.4V5.5ZM9.523 16.431C9.42167 16.4721 9.33441 16.5416 9.27176 16.6313C9.20912 16.7209 9.17377 16.8267 9.17 16.936V18.5C9.17 18.91 8.83 19.25 8.42 19.25C8.01 19.25 7.67 18.91 7.67 18.5V16.936C7.6661 16.8268 7.63071 16.721 7.56808 16.6314C7.50545 16.5418 7.41826 16.4722 7.317 16.431C6.83606 16.2186 6.4272 15.871 6.14013 15.4306C5.85306 14.9901 5.70015 14.4757 5.7 13.95C5.7 12.45 6.92 11.22 8.42 11.22C9.92 11.22 11.15 12.44 11.15 13.95C11.15 15.058 10.48 16.007 9.523 16.431ZM16.33 18.5C16.33 18.91 15.99 19.25 15.58 19.25C15.17 19.25 14.83 18.91 14.83 18.5V14.6C14.83 14.19 15.17 13.85 15.58 13.85C15.99 13.85 16.33 14.19 16.33 14.6V18.5ZM15.58 12.77C14.08 12.77 12.85 11.55 12.85 10.04C12.85 8.932 13.52 7.983 14.477 7.559C14.5783 7.51792 14.6656 7.44836 14.7282 7.35874C14.7909 7.26912 14.8262 7.16328 14.83 7.054V5.5C14.83 5.09 15.17 4.75 15.58 4.75C15.99 4.75 16.33 5.09 16.33 5.5V7.064C16.33 7.287 16.48 7.478 16.683 7.569C17.1639 7.78139 17.5728 8.12895 17.8599 8.56941C18.1469 9.00987 18.2999 9.52425 18.3 10.05C18.3 11.55 17.08 12.77 15.58 12.77Z" fill="#ced6db"/>
</svg>
