<svg width="24" height="24" viewBox="0 0 24 24" fill="none" xmlns="http://www.w3.org/2000/svg">
<path d="M21.25 18.47L19.6 18.86C19.23 18.95 18.94 19.23 18.86 19.6L18.51 21.07C18.32 21.87 17.3 22.12 16.77 21.49L13.78 18.05C13.7243 17.9859 13.6859 17.9088 13.6684 17.8257C13.6509 17.7427 13.6548 17.6566 13.6798 17.5755C13.7049 17.4944 13.7502 17.421 13.8114 17.3623C13.8727 17.3036 13.9479 17.2615 14.03 17.24C15.8051 16.8085 17.3937 15.816 18.56 14.41C18.75 14.18 19.09 14.15 19.3 14.36L21.52 16.58C22.28 17.34 22.01 18.29 21.25 18.47ZM2.70001 18.47L4.35001 18.86C4.72001 18.95 5.01001 19.23 5.09001 19.6L5.44001 21.07C5.63001 21.87 6.65001 22.12 7.18001 21.49L10.17 18.05C10.41 17.77 10.28 17.33 9.92001 17.24C8.14492 16.8085 6.55631 15.816 5.39001 14.41C5.34683 14.355 5.29257 14.3097 5.23074 14.277C5.16892 14.2443 5.10092 14.225 5.03114 14.2202C4.96137 14.2155 4.89138 14.2255 4.82572 14.2496C4.76006 14.2737 4.7002 14.3113 4.65001 14.36L2.43001 16.58C1.67001 17.34 1.94001 18.29 2.70001 18.47ZM12 1.99998C8.13001 1.99998 5.00001 5.12999 5.00001 8.99999C5.00001 10.45 5.43001 11.78 6.17001 12.89C6.71226 13.6987 7.4176 14.3852 8.24078 14.9053C9.06396 15.4253 9.98678 15.7676 10.95 15.91C11.29 15.97 11.64 16 12 16C12.36 16 12.71 15.97 13.05 15.91C15.04 15.62 16.75 14.49 17.83 12.89C18.5977 11.7383 19.005 10.3841 19 8.99999C19 5.12999 15.87 1.99998 12 1.99998ZM15.06 8.77999L14.23 9.60999C14.09 9.74999 14.01 10.02 14.06 10.22L14.3 11.25C14.49 12.06 14.06 12.38 13.34 11.95L12.34 11.36C12.2385 11.3058 12.1251 11.2775 12.01 11.2775C11.8949 11.2775 11.7816 11.3058 11.68 11.36L10.68 11.95C9.96001 12.37 9.53001 12.06 9.72001 11.25L9.96001 10.22C10 10.03 9.93001 9.74999 9.79001 9.60999L8.94001 8.77999C8.45001 8.28999 8.61001 7.79999 9.29001 7.68999L10.36 7.50999C10.54 7.47999 10.75 7.31999 10.83 7.15999L11.42 5.97999C11.74 5.33999 12.26 5.33999 12.58 5.97999L13.17 7.15999C13.25 7.31999 13.46 7.47999 13.65 7.50999L14.72 7.68999C15.39 7.79999 15.55 8.28999 15.06 8.77999Z" fill="white"/>
</svg>
