<svg width="24" height="24" viewBox="0 0 24 24" fill="none" xmlns="http://www.w3.org/2000/svg">
<path d="M19.5 22H4.5C3.8099 22 3.2207 21.7559 2.73242 21.2676C2.24414 20.7793 2 20.1901 2 19.5V10.75C2 10.0599 2.24414 9.4707 2.73242 8.98242C3.2207 8.49414 3.8099 8.25 4.5 8.25H11.2969L7.46875 4.40234C7.3125 4.46745 7.15625 4.5 7 4.5C6.66146 4.5 6.36849 4.3763 6.12109 4.12891C5.8737 3.88151 5.75 3.58529 5.75 3.24023C5.75 2.89518 5.8737 2.60221 6.12109 2.36133C6.36849 2.12044 6.66471 2 7.00977 2C7.35482 2 7.64779 2.12044 7.88867 2.36133C8.12956 2.60221 8.25 2.89844 8.25 3.25C8.25 3.40625 8.21745 3.5625 8.15234 3.71875L12 7.54688L15.8477 3.71875C15.7826 3.5625 15.75 3.40625 15.75 3.25C15.75 2.89844 15.8737 2.60221 16.1211 2.36133C16.3685 2.12044 16.6647 2 17.0098 2C17.3548 2 17.6478 2.12044 17.8887 2.36133C18.1296 2.60221 18.25 2.89518 18.25 3.24023C18.25 3.58529 18.1296 3.88151 17.8887 4.12891C17.6478 4.3763 17.3516 4.5 17 4.5C16.8438 4.5 16.6875 4.46745 16.5312 4.40234L12.7031 8.25H19.5C20.1901 8.25 20.7793 8.49414 21.2676 8.98242C21.7559 9.4707 22 10.0599 22 10.75V19.5C22 20.1901 21.7559 20.7793 21.2676 21.2676C20.7793 21.7559 20.1901 22 19.5 22ZM15.75 14.1289C15.75 11.9805 15.3333 10.8542 14.5 10.75H4.5C4.2526 10.7891 4.04427 10.8997 3.875 11.082C3.70573 11.2643 3.58203 11.4564 3.50391 11.6582C3.42578 11.86 3.36393 12.127 3.31836 12.459C3.27279 12.791 3.25 13.0449 3.25 13.2207V16.1211C3.25 16.4336 3.26302 16.7428 3.28906 17.0488C3.3151 17.3548 3.36719 17.6999 3.44531 18.084C3.52344 18.4681 3.65039 18.7904 3.82617 19.0508C4.00195 19.3112 4.22656 19.4609 4.5 19.5H14.5C14.6953 19.474 14.8711 19.3991 15.0273 19.2754C15.1836 19.1517 15.304 18.9759 15.3887 18.748C15.4733 18.5202 15.5417 18.3086 15.5938 18.1133C15.6458 17.918 15.6816 17.6706 15.7012 17.3711C15.7207 17.0716 15.7337 16.8503 15.7402 16.707C15.7467 16.5638 15.75 16.3685 15.75 16.1211V14.1289ZM20.125 10.75H17.625C17.4557 10.75 17.3092 10.8118 17.1855 10.9355C17.0618 11.0592 17 11.2057 17 11.375C17 11.5443 17.0618 11.6908 17.1855 11.8145C17.3092 11.9382 17.4557 12 17.625 12H20.125C20.2943 12 20.4408 11.9382 20.5645 11.8145C20.6882 11.6908 20.75 11.5443 20.75 11.375C20.75 11.2057 20.6882 11.0592 20.5645 10.9355C20.4408 10.8118 20.2943 10.75 20.125 10.75ZM20.125 13.25H17.625C17.4557 13.25 17.3092 13.3118 17.1855 13.4355C17.0618 13.5592 17 13.7057 17 13.875C17 14.0443 17.0618 14.1908 17.1855 14.3145C17.3092 14.4382 17.4557 14.5 17.625 14.5H20.125C20.2943 14.5 20.4408 14.4382 20.5645 14.3145C20.6882 14.1908 20.75 14.0443 20.75 13.875C20.75 13.7057 20.6882 13.5592 20.5645 13.4355C20.4408 13.3118 20.2943 13.25 20.125 13.25ZM20.125 15.75H17.625C17.4557 15.75 17.3092 15.8118 17.1855 15.9355C17.0618 16.0592 17 16.2057 17 16.375C17 16.5443 17.0618 16.6908 17.1855 16.8145C17.3092 16.9382 17.4557 17 17.625 17H20.125C20.2943 17 20.4408 16.9382 20.5645 16.8145C20.6882 16.6908 20.75 16.5443 20.75 16.375C20.75 16.2057 20.6882 16.0592 20.5645 15.9355C20.4408 15.8118 20.2943 15.75 20.125 15.75ZM20.125 18.25H17.625C17.4557 18.25 17.3092 18.3118 17.1855 18.4355C17.0618 18.5592 17 18.7057 17 18.875C17 19.0443 17.0618 19.1908 17.1855 19.3145C17.3092 19.4382 17.4557 19.5 17.625 19.5H20.125C20.2943 19.5 20.4408 19.4382 20.5645 19.3145C20.6882 19.1908 20.75 19.0443 20.75 18.875C20.75 18.7057 20.6882 18.5592 20.5645 18.4355C20.4408 18.3118 20.2943 18.25 20.125 18.25Z" fill="white"/>
</svg>
