<svg width="24" height="24" viewBox="0 0 24 24" fill="none" xmlns="http://www.w3.org/2000/svg">
<path d="M16.75 3.56V2C16.75 1.59 16.41 1.25 16 1.25C15.59 1.25 15.25 1.59 15.25 2V3.5H8.75V2C8.75 1.59 8.41 1.25 8 1.25C7.59 1.25 7.25 1.59 7.25 2V3.56C4.55 3.81 3.24 5.42 3.04 7.81C3.02 8.1 3.26 8.34 3.54 8.34H20.46C20.75 8.34 20.99 8.09 20.96 7.81C20.76 5.42 19.45 3.81 16.75 3.56ZM20 9.84H4C3.45 9.84 3 10.29 3 10.84V17C3 20 4.5 22 8 22H12.93C13.62 22 14.1 21.33 13.88 20.68C13.68 20.1 13.51 19.46 13.51 19C13.51 15.97 15.98 13.5 19.01 13.5C19.3 13.5 19.59 13.52 19.87 13.57C20.47 13.66 21.01 13.19 21.01 12.59V10.85C21.0074 10.5829 20.9002 10.3276 20.7113 10.1387C20.5224 9.94985 20.2671 9.84261 20 9.84ZM9.21 17.71C9.02 17.89 8.76 18 8.5 18C8.37 18 8.24 17.97 8.12 17.92C8 17.87 7.89 17.8 7.79 17.71C7.61 17.52 7.5 17.27 7.5 17C7.5 16.87 7.53 16.74 7.58 16.62C7.63 16.49 7.7 16.39 7.79 16.29C7.89 16.2 8 16.13 8.12 16.08C8.48 15.92 8.93 16.01 9.21 16.29C9.3 16.39 9.37 16.49 9.42 16.62C9.47 16.74 9.5 16.87 9.5 17C9.5 17.27 9.39 17.52 9.21 17.71ZM9.21 14.21C9.02 14.39 8.76 14.5 8.5 14.5C8.37 14.5 8.24 14.48 8.12 14.42C8 14.37 7.89 14.3 7.79 14.21C7.61 14.02 7.5 13.76 7.5 13.5C7.5 13.37 7.53 13.24 7.58 13.12C7.63 13 7.7 12.89 7.79 12.79C7.89 12.7 8 12.63 8.12 12.58C8.48 12.43 8.93 12.51 9.21 12.79C9.3 12.89 9.37 13 9.42 13.12C9.47 13.24 9.5 13.37 9.5 13.5C9.5 13.76 9.39 14.02 9.21 14.21ZM12.92 13.88C12.87 14 12.8 14.11 12.71 14.21C12.61 14.3 12.5 14.37 12.38 14.42C12.26 14.48 12.13 14.5 12 14.5C11.74 14.5 11.48 14.39 11.29 14.21C11.2 14.11 11.13 14 11.08 13.88C11.0286 13.7598 11.0015 13.6307 11 13.5C11 13.24 11.11 12.98 11.29 12.79C11.57 12.51 12.01 12.42 12.38 12.58C12.5 12.63 12.61 12.7 12.71 12.79C12.89 12.98 13 13.24 13 13.5C13 13.63 12.98 13.76 12.92 13.88Z" fill="white"/>
<path d="M19 15C16.796 15 15 16.796 15 19C15 21.204 16.796 23 19 23C21.204 23 23 21.204 23 19C23 16.796 21.204 15 19 15ZM20.74 20.428C20.72 20.4621 20.6934 20.4919 20.6617 20.5156C20.6301 20.5393 20.5941 20.5565 20.5558 20.5662C20.5174 20.5758 20.4775 20.5778 20.4384 20.5719C20.3993 20.5661 20.3618 20.5525 20.328 20.532L19.088 19.792C18.78 19.608 18.552 19.204 18.552 18.848V17.208C18.552 17.044 18.688 16.908 18.852 16.908C19.016 16.908 19.152 17.044 19.152 17.208V18.848C19.152 18.992 19.272 19.204 19.396 19.276L20.636 20.016C20.78 20.1 20.828 20.284 20.74 20.428Z" fill="white"/>
</svg>
