<svg width="30" height="30" viewBox="0 0 30 30" fill="none" xmlns="http://www.w3.org/2000/svg">
<path opacity="0.4" d="M21.025 2.5H8.97502C6.31252 2.5 4.15002 4.675 4.15002 7.325V24.9375C4.15002 27.1875 5.76252 28.1375 7.73752 27.05L13.8375 23.6625C14.4875 23.3 15.5375 23.3 16.175 23.6625L22.275 27.05C24.25 28.15 25.8625 27.2 25.8625 24.9375V7.325C25.85 4.675 23.6875 2.5 21.025 2.5Z" fill="white"/>
<path d="M18.125 12.375H15.9375V10.2625C15.9375 9.75001 15.5125 9.32501 15 9.32501C14.4875 9.32501 14.0625 9.75001 14.0625 10.2625V12.375H11.875C11.3625 12.375 10.9375 12.8 10.9375 13.3125C10.9375 13.825 11.3625 14.25 11.875 14.25H14.0625V16.5125C14.0625 17.025 14.4875 17.45 15 17.45C15.5125 17.45 15.9375 17.025 15.9375 16.5125V14.25H18.125C18.6375 14.25 19.0625 13.825 19.0625 13.3125C19.0625 12.8 18.6375 12.375 18.125 12.375Z" fill="black"/>
</svg>
