<svg width="22" height="22" viewBox="0 0 22 22" fill="none" xmlns="http://www.w3.org/2000/svg">
<path opacity="0.6" d="M15.4183 1.83333H6.58167C4.62917 1.83333 3.04333 3.42833 3.04333 5.37166V18.2875C3.04333 19.9375 4.22584 20.6342 5.67417 19.8367L10.1475 17.3525C10.6242 17.0867 11.3942 17.0867 11.8617 17.3525L16.335 19.8367C17.7833 20.6433 18.9658 19.9467 18.9658 18.2875V5.37166C18.9567 3.42833 17.3708 1.83333 15.4183 1.83333Z" fill="url(#paint0_linear_218_510)"/>
<path d="M13.2917 9.075H11.6875V7.52583C11.6875 7.15 11.3759 6.83833 11 6.83833C10.6242 6.83833 10.3125 7.15 10.3125 7.52583V9.075H8.70837C8.33254 9.075 8.02087 9.38667 8.02087 9.7625C8.02087 10.1383 8.33254 10.45 8.70837 10.45H10.3125V12.1092C10.3125 12.485 10.6242 12.7967 11 12.7967C11.3759 12.7967 11.6875 12.485 11.6875 12.1092V10.45H13.2917C13.6675 10.45 13.9792 10.1383 13.9792 9.7625C13.9792 9.38667 13.6675 9.075 13.2917 9.075Z" fill="white"/>
<defs>
<linearGradient id="paint0_linear_218_510" x1="11.0046" y1="1.83333" x2="11.0046" y2="20.1726" gradientUnits="userSpaceOnUse">
<stop stop-color="#F401DC"/>
<stop offset="1" stop-color="#FE36AE" stop-opacity="0.9"/>
</linearGradient>
</defs>
</svg>
