<svg width="30" height="30" viewBox="0 0 30 30" fill="none" xmlns="http://www.w3.org/2000/svg">
<path d="M18.125 14.2475H11.875C11.3625 14.2475 10.9375 13.8225 10.9375 13.31C10.9375 12.7975 11.3625 12.3725 11.875 12.3725H18.125C18.6375 12.3725 19.0625 12.7975 19.0625 13.31C19.0625 13.8225 18.6375 14.2475 18.125 14.2475Z" fill="#ced6db"/>
<path d="M15 17.45C14.4875 17.45 14.0625 17.025 14.0625 16.5125V10.2625C14.0625 9.75001 14.4875 9.32501 15 9.32501C15.5125 9.32501 15.9375 9.75001 15.9375 10.2625V16.5125C15.9375 17.025 15.5125 17.45 15 17.45Z" fill="#ced6db"/>
<path d="M23.8375 28.4375C23.2 28.4375 22.5 28.25 21.825 27.8625L15.725 24.475C15.3625 24.275 14.65 24.275 14.2875 24.475L8.18752 27.8625C6.95002 28.55 5.68752 28.625 4.72502 28.05C3.76252 27.4875 3.21252 26.35 3.21252 24.9375V7.325C3.21252 4.15 5.80002 1.5625 8.97502 1.5625H21.0375C24.2125 1.5625 26.8 4.15 26.8 7.325V24.9375C26.8 26.35 26.25 27.4875 25.2875 28.05C24.85 28.3125 24.35 28.4375 23.8375 28.4375ZM15 22.45C15.5875 22.45 16.1625 22.575 16.625 22.8375L22.725 26.225C23.3625 26.5875 23.95 26.6625 24.325 26.4375C24.7 26.2125 24.9125 25.675 24.9125 24.9375V7.325C24.9125 5.1875 23.1625 3.4375 21.025 3.4375H8.97502C7.94501 3.4408 6.95812 3.85143 6.22979 4.57976C5.50145 5.3081 5.09082 6.29498 5.08752 7.325V24.9375C5.08752 25.675 5.30002 26.225 5.67502 26.4375C6.05002 26.65 6.63752 26.5875 7.27502 26.225L13.375 22.8375C13.8375 22.575 14.4125 22.45 15 22.45Z" fill="#ced6db"/>
</svg>
