<svg width="35" height="35" viewBox="0 0 35 35" fill="none" xmlns="http://www.w3.org/2000/svg">
<path d="M14.3892 13.5445C16.0986 7.79519 14.8221 5.86372 14.0504 4.10879C15.4143 4.72245 19.8367 6.06828 20.7528 9.90844C21.6689 13.7486 20.0387 18.003 18.0689 23.9367C16.4931 28.6836 18.1998 30.5355 20.2629 30.6797C19.4333 31.9545 12.1464 34.2678 10.9647 27.8115C10.4603 25.0558 13.1992 17.5465 14.3892 13.5445Z" fill="url(#paint0_linear_540_916)"/>
<path d="M21.5176 18.0304C22.7255 14.1418 22.4519 10.6689 22.1357 9.19069C24.6012 10.992 29.5373 14.5209 31.0996 17.5918C32.2832 19.9184 31.9111 21.8689 30.1938 24.1922C29.0076 25.797 24.142 29.5442 21.2449 29.3416C20.8824 29.3163 19.1958 29.3112 19.0801 27.5594C18.9032 24.8795 20.5947 21.0016 21.5176 18.0304Z" fill="url(#paint1_linear_540_916)"/>
<path fill-rule="evenodd" clip-rule="evenodd" d="M3.36363 22.4641C1.75027 27.5082 2.82237 30.6173 4.72602 32.629C7.27703 35.3247 10.8018 34.6827 13.1992 33.2215C11.6195 32.5187 8.58588 29.6605 9.63517 25.0786C10.7542 20.1922 11.6957 17.3405 12.4904 14.8872C12.6797 14.3028 12.8649 13.7312 13.0483 13.1458C14.0015 10.1027 14.4743 6.4337 12.1347 3.97483C9.79512 1.51596 5.30506 1.0539 5.14733 1.19095C6.29291 2.45571 8.04837 5.39203 7.4542 9.49678C7.10015 11.9427 6.55279 13.3906 5.93727 15.0187C5.64894 15.7814 5.34565 16.5836 5.04028 17.5465C4.8287 18.2137 4.68311 18.6129 4.50885 19.0908C4.26688 19.7544 3.96962 20.5695 3.36363 22.4641Z" fill="url(#paint2_linear_540_916)"/>
<path d="M7.4542 9.49678C8.04837 5.39203 6.29291 2.45571 5.14733 1.19095C4.10035 1.33986 2.40216 4.12549 2.51752 9.15158C2.5907 12.3405 3.84182 15.5377 5.04028 17.5465C5.34565 16.5836 5.64894 15.7814 5.93727 15.0187C6.55279 13.3906 7.10015 11.9427 7.4542 9.49678Z" fill="url(#paint3_linear_540_916)"/>
<defs>
<linearGradient id="paint0_linear_540_916" x1="17.5506" y1="7.86905" x2="13.5621" y2="37.3395" gradientUnits="userSpaceOnUse">
<stop stop-color="#FF12E7" stop-opacity="0.83"/>
<stop offset="1" stop-color="#F94141" stop-opacity="0.76"/>
</linearGradient>
<linearGradient id="paint1_linear_540_916" x1="16.8858" y1="9.12468" x2="16.1472" y2="31.1352" gradientUnits="userSpaceOnUse">
<stop stop-color="#F401DC" stop-opacity="0.79"/>
<stop offset="1" stop-color="#FF4B4B" stop-opacity="0.72"/>
</linearGradient>
<linearGradient id="paint2_linear_540_916" x1="17.9969" y1="2.04869" x2="14.9531" y2="39.3337" gradientUnits="userSpaceOnUse">
<stop stop-color="#F80FFD"/>
<stop offset="1" stop-color="#FF2626" stop-opacity="0.49"/>
</linearGradient>
<linearGradient id="paint3_linear_540_916" x1="17.9969" y1="2.04869" x2="16.7997" y2="16.363" gradientUnits="userSpaceOnUse">
<stop stop-color="#B35BF9" stop-opacity="0.59"/>
<stop offset="1" stop-color="#C4487C" stop-opacity="0.69"/>
</linearGradient>
</defs>
</svg>
