<svg width="176" height="43" viewBox="0 0 176 43" fill="white" xmlns="http://www.w3.org/2000/svg">
<path d="M16.31 27H20.265V15.625C20.265 10.235 16.87 7.4 12.355 7.4C10.045 7.4 7.91 8.345 6.615 9.92V7.715H2.625V27H6.615V16.22C6.615 12.685 8.54 10.865 11.48 10.865C14.385 10.865 16.31 12.685 16.31 16.22V27ZM43.7295 17.34C43.7295 11.285 39.3895 7.4 33.8945 7.4C28.3995 7.4 24.0595 11.285 24.0595 17.34C24.0595 23.395 28.2245 27.315 33.7195 27.315C39.2495 27.315 43.7295 23.395 43.7295 17.34ZM28.1195 17.34C28.1195 12.965 30.8145 10.865 33.8245 10.865C36.7995 10.865 39.6345 12.965 39.6345 17.34C39.6345 21.715 36.6945 23.85 33.7195 23.85C30.7095 23.85 28.1195 21.715 28.1195 17.34ZM61.3588 27H65.3138V15.625C65.3138 10.235 61.9188 7.4 57.4038 7.4C55.0938 7.4 52.9588 8.345 51.6638 9.92V7.715H47.6738V27H51.6638V16.22C51.6638 12.685 53.5888 10.865 56.5288 10.865C59.4338 10.865 61.3588 12.685 61.3588 16.22V27ZM71.0333 21.645C71.0333 25.565 73.1683 27 76.5983 27H79.7483V23.675H77.2983C75.6183 23.675 75.0583 23.08 75.0583 21.645V10.97H79.7483V7.715H75.0583V2.92H71.0333V7.715H68.7583V10.97H71.0333V21.645ZM101.801 17.34C101.801 11.285 97.4608 7.4 91.9658 7.4C86.4708 7.4 82.1308 11.285 82.1308 17.34C82.1308 23.395 86.2958 27.315 91.7908 27.315C97.3208 27.315 101.801 23.395 101.801 17.34ZM86.1908 17.34C86.1908 12.965 88.8858 10.865 91.8958 10.865C94.8708 10.865 97.7058 12.965 97.7058 17.34C97.7058 21.715 94.7658 23.85 91.7908 23.85C88.7808 23.85 86.1908 21.715 86.1908 17.34ZM119.43 27H123.385V15.625C123.385 10.235 119.99 7.4 115.475 7.4C113.165 7.4 111.03 8.345 109.735 9.92V7.715H105.745V27H109.735V16.22C109.735 12.685 111.66 10.865 114.6 10.865C117.505 10.865 119.43 12.685 119.43 16.22V27Z"/>
<path d="M4.12109 31.4688V40H2.99023V31.4688H4.12109ZM7.69531 35.3066V36.2324H3.875V35.3066H7.69531ZM8.27539 31.4688V32.3945H3.875V31.4688H8.27539ZM10.6367 33.6602V40H9.54688V33.6602H10.6367ZM9.46484 31.9785C9.46484 31.8027 9.51758 31.6543 9.62305 31.5332C9.73242 31.4121 9.89258 31.3516 10.1035 31.3516C10.3105 31.3516 10.4688 31.4121 10.5781 31.5332C10.6914 31.6543 10.748 31.8027 10.748 31.9785C10.748 32.1465 10.6914 32.291 10.5781 32.4121C10.4688 32.5293 10.3105 32.5879 10.1035 32.5879C9.89258 32.5879 9.73242 32.5293 9.62305 32.4121C9.51758 32.291 9.46484 32.1465 9.46484 31.9785ZM13.4609 35.0137V40H12.377V33.6602H13.4023L13.4609 35.0137ZM13.2031 36.5898L12.752 36.5723C12.7559 36.1387 12.8203 35.7383 12.9453 35.3711C13.0703 35 13.2461 34.6777 13.4727 34.4043C13.6992 34.1309 13.9688 33.9199 14.2812 33.7715C14.5977 33.6191 14.9473 33.543 15.3301 33.543C15.6426 33.543 15.9238 33.5859 16.1738 33.6719C16.4238 33.7539 16.6367 33.8867 16.8125 34.0703C16.9922 34.2539 17.1289 34.4922 17.2227 34.7852C17.3164 35.0742 17.3633 35.4277 17.3633 35.8457V40H16.2734V35.834C16.2734 35.502 16.2246 35.2363 16.127 35.0371C16.0293 34.834 15.8867 34.6875 15.6992 34.5977C15.5117 34.5039 15.2812 34.457 15.0078 34.457C14.7383 34.457 14.4922 34.5137 14.2695 34.627C14.0508 34.7402 13.8613 34.8965 13.7012 35.0957C13.5449 35.2949 13.4219 35.5234 13.332 35.7812C13.2461 36.0352 13.2031 36.3047 13.2031 36.5898ZM23.0059 38.7695V31H24.0957V40H23.0996L23.0059 38.7695ZM18.7402 36.9004V36.7773C18.7402 36.293 18.7988 35.8535 18.916 35.459C19.0371 35.0605 19.207 34.7188 19.4258 34.4336C19.6484 34.1484 19.9121 33.9297 20.2168 33.7773C20.5254 33.6211 20.8691 33.543 21.248 33.543C21.6465 33.543 21.9941 33.6133 22.291 33.7539C22.5918 33.8906 22.8457 34.0918 23.0527 34.3574C23.2637 34.6191 23.4297 34.9355 23.5508 35.3066C23.6719 35.6777 23.7559 36.0977 23.8027 36.5664V37.1055C23.7598 37.5703 23.6758 37.9883 23.5508 38.3594C23.4297 38.7305 23.2637 39.0469 23.0527 39.3086C22.8457 39.5703 22.5918 39.7715 22.291 39.9121C21.9902 40.0488 21.6387 40.1172 21.2363 40.1172C20.8652 40.1172 20.5254 40.0371 20.2168 39.877C19.9121 39.7168 19.6484 39.4922 19.4258 39.2031C19.207 38.9141 19.0371 38.5742 18.916 38.1836C18.7988 37.7891 18.7402 37.3613 18.7402 36.9004ZM19.8301 36.7773V36.9004C19.8301 37.2168 19.8613 37.5137 19.9238 37.791C19.9902 38.0684 20.0918 38.3125 20.2285 38.5234C20.3652 38.7344 20.5391 38.9004 20.75 39.0215C20.9609 39.1387 21.2129 39.1973 21.5059 39.1973C21.8652 39.1973 22.1602 39.1211 22.3906 38.9688C22.625 38.8164 22.8125 38.6152 22.9531 38.3652C23.0938 38.1152 23.2031 37.8438 23.2812 37.5508V36.1387C23.2344 35.9238 23.166 35.7168 23.0762 35.5176C22.9902 35.3145 22.877 35.1348 22.7363 34.9785C22.5996 34.8184 22.4297 34.6914 22.2266 34.5977C22.0273 34.5039 21.791 34.457 21.5176 34.457C21.2207 34.457 20.9648 34.5195 20.75 34.6445C20.5391 34.7656 20.3652 34.9336 20.2285 35.1484C20.0918 35.3594 19.9902 35.6055 19.9238 35.8867C19.8613 36.1641 19.8301 36.4609 19.8301 36.7773ZM32.498 38.916V35.6523C32.498 35.4023 32.4473 35.1855 32.3457 35.002C32.248 34.8145 32.0996 34.6699 31.9004 34.5684C31.7012 34.4668 31.4551 34.416 31.1621 34.416C30.8887 34.416 30.6484 34.4629 30.4414 34.5566C30.2383 34.6504 30.0781 34.7734 29.9609 34.9258C29.8477 35.0781 29.791 35.2422 29.791 35.418H28.707C28.707 35.1914 28.7656 34.9668 28.8828 34.7441C29 34.5215 29.168 34.3203 29.3867 34.1406C29.6094 33.957 29.875 33.8125 30.1836 33.707C30.4961 33.5977 30.8438 33.543 31.2266 33.543C31.6875 33.543 32.0938 33.6211 32.4453 33.7773C32.8008 33.9336 33.0781 34.1699 33.2773 34.4863C33.4805 34.7988 33.582 35.1914 33.582 35.6641V38.6172C33.582 38.8281 33.5996 39.0527 33.6348 39.291C33.6738 39.5293 33.7305 39.7344 33.8047 39.9062V40H32.6738C32.6191 39.875 32.5762 39.709 32.5449 39.502C32.5137 39.291 32.498 39.0957 32.498 38.916ZM32.6855 36.1562L32.6973 36.918H31.6016C31.293 36.918 31.0176 36.9434 30.7754 36.9941C30.5332 37.041 30.3301 37.1133 30.166 37.2109C30.002 37.3086 29.877 37.4316 29.791 37.5801C29.7051 37.7246 29.6621 37.8945 29.6621 38.0898C29.6621 38.2891 29.707 38.4707 29.7969 38.6348C29.8867 38.7988 30.0215 38.9297 30.2012 39.0273C30.3848 39.1211 30.6094 39.168 30.875 39.168C31.207 39.168 31.5 39.0977 31.7539 38.957C32.0078 38.8164 32.209 38.6445 32.3574 38.4414C32.5098 38.2383 32.5918 38.041 32.6035 37.8496L33.0664 38.3711C33.0391 38.5352 32.9648 38.7168 32.8438 38.916C32.7227 39.1152 32.5605 39.3066 32.3574 39.4902C32.1582 39.6699 31.9199 39.8203 31.6426 39.9414C31.3691 40.0586 31.0605 40.1172 30.7168 40.1172C30.2871 40.1172 29.9102 40.0332 29.5859 39.8652C29.2656 39.6973 29.0156 39.4727 28.8359 39.1914C28.6602 38.9062 28.5723 38.5879 28.5723 38.2363C28.5723 37.8965 28.6387 37.5977 28.7715 37.3398C28.9043 37.0781 29.0957 36.8613 29.3457 36.6895C29.5957 36.5137 29.8965 36.3809 30.248 36.291C30.5996 36.2012 30.9922 36.1562 31.4258 36.1562H32.6855ZM36.3711 35.0137V40H35.2871V33.6602H36.3125L36.3711 35.0137ZM36.1133 36.5898L35.6621 36.5723C35.666 36.1387 35.7305 35.7383 35.8555 35.3711C35.9805 35 36.1562 34.6777 36.3828 34.4043C36.6094 34.1309 36.8789 33.9199 37.1914 33.7715C37.5078 33.6191 37.8574 33.543 38.2402 33.543C38.5527 33.543 38.834 33.5859 39.084 33.6719C39.334 33.7539 39.5469 33.8867 39.7227 34.0703C39.9023 34.2539 40.0391 34.4922 40.1328 34.7852C40.2266 35.0742 40.2734 35.4277 40.2734 35.8457V40H39.1836V35.834C39.1836 35.502 39.1348 35.2363 39.0371 35.0371C38.9395 34.834 38.7969 34.6875 38.6094 34.5977C38.4219 34.5039 38.1914 34.457 37.918 34.457C37.6484 34.457 37.4023 34.5137 37.1797 34.627C36.9609 34.7402 36.7715 34.8965 36.6113 35.0957C36.4551 35.2949 36.332 35.5234 36.2422 35.7812C36.1562 36.0352 36.1133 36.3047 36.1133 36.5898ZM43.7012 39.3438L45.4648 33.6602H46.625L44.082 40.9785C44.0234 41.1348 43.9453 41.3027 43.8477 41.4824C43.7539 41.666 43.6328 41.8398 43.4844 42.0039C43.3359 42.168 43.1562 42.3008 42.9453 42.4023C42.7383 42.5078 42.4902 42.5605 42.2012 42.5605C42.1152 42.5605 42.0059 42.5488 41.873 42.5254C41.7402 42.502 41.6465 42.4824 41.5918 42.4668L41.5859 41.5879C41.6172 41.5918 41.666 41.5957 41.7324 41.5996C41.8027 41.6074 41.8516 41.6113 41.8789 41.6113C42.125 41.6113 42.334 41.5781 42.5059 41.5117C42.6777 41.4492 42.8223 41.3418 42.9395 41.1895C43.0605 41.041 43.1641 40.8359 43.25 40.5742L43.7012 39.3438ZM42.4062 33.6602L44.0527 38.582L44.334 39.7246L43.5547 40.123L41.2227 33.6602H42.4062ZM51.6582 34.9199V40H50.5684V33.6602H51.5996L51.6582 34.9199ZM51.4355 36.5898L50.9316 36.5723C50.9355 36.1387 50.9922 35.7383 51.1016 35.3711C51.2109 35 51.373 34.6777 51.5879 34.4043C51.8027 34.1309 52.0703 33.9199 52.3906 33.7715C52.7109 33.6191 53.082 33.543 53.5039 33.543C53.8008 33.543 54.0742 33.5859 54.3242 33.6719C54.5742 33.7539 54.791 33.8848 54.9746 34.0645C55.1582 34.2441 55.3008 34.4746 55.4023 34.7559C55.5039 35.0371 55.5547 35.377 55.5547 35.7754V40H54.4707V35.8281C54.4707 35.4961 54.4141 35.2305 54.3008 35.0312C54.1914 34.832 54.0352 34.6875 53.832 34.5977C53.6289 34.5039 53.3906 34.457 53.1172 34.457C52.7969 34.457 52.5293 34.5137 52.3145 34.627C52.0996 34.7402 51.9277 34.8965 51.7988 35.0957C51.6699 35.2949 51.5762 35.5234 51.5176 35.7812C51.4629 36.0352 51.4355 36.3047 51.4355 36.5898ZM55.543 35.9922L54.8164 36.2148C54.8203 35.8672 54.877 35.5332 54.9863 35.2129C55.0996 34.8926 55.2617 34.6074 55.4727 34.3574C55.6875 34.1074 55.9512 33.9102 56.2637 33.7656C56.5762 33.6172 56.9336 33.543 57.3359 33.543C57.6758 33.543 57.9766 33.5879 58.2383 33.6777C58.5039 33.7676 58.7266 33.9062 58.9062 34.0938C59.0898 34.2773 59.2285 34.5137 59.3223 34.8027C59.416 35.0918 59.4629 35.4355 59.4629 35.834V40H58.373V35.8223C58.373 35.4668 58.3164 35.1914 58.2031 34.9961C58.0938 34.7969 57.9375 34.6582 57.7344 34.5801C57.5352 34.498 57.2969 34.457 57.0195 34.457C56.7812 34.457 56.5703 34.498 56.3867 34.5801C56.2031 34.6621 56.0488 34.7754 55.9238 34.9199C55.7988 35.0605 55.7031 35.2227 55.6367 35.4062C55.5742 35.5898 55.543 35.7852 55.543 35.9922ZM60.8164 36.9004V36.7656C60.8164 36.3086 60.8828 35.8848 61.0156 35.4941C61.1484 35.0996 61.3398 34.7578 61.5898 34.4688C61.8398 34.1758 62.1426 33.9492 62.498 33.7891C62.8535 33.625 63.252 33.543 63.6934 33.543C64.1387 33.543 64.5391 33.625 64.8945 33.7891C65.2539 33.9492 65.5586 34.1758 65.8086 34.4688C66.0625 34.7578 66.2559 35.0996 66.3887 35.4941C66.5215 35.8848 66.5879 36.3086 66.5879 36.7656V36.9004C66.5879 37.3574 66.5215 37.7812 66.3887 38.1719C66.2559 38.5625 66.0625 38.9043 65.8086 39.1973C65.5586 39.4863 65.2559 39.7129 64.9004 39.877C64.5488 40.0371 64.1504 40.1172 63.7051 40.1172C63.2598 40.1172 62.8594 40.0371 62.5039 39.877C62.1484 39.7129 61.8438 39.4863 61.5898 39.1973C61.3398 38.9043 61.1484 38.5625 61.0156 38.1719C60.8828 37.7812 60.8164 37.3574 60.8164 36.9004ZM61.9004 36.7656V36.9004C61.9004 37.2168 61.9375 37.5156 62.0117 37.7969C62.0859 38.0742 62.1973 38.3203 62.3457 38.5352C62.498 38.75 62.6875 38.9199 62.9141 39.0449C63.1406 39.166 63.4043 39.2266 63.7051 39.2266C64.002 39.2266 64.2617 39.166 64.4844 39.0449C64.7109 38.9199 64.8984 38.75 65.0469 38.5352C65.1953 38.3203 65.3066 38.0742 65.3809 37.7969C65.459 37.5156 65.498 37.2168 65.498 36.9004V36.7656C65.498 36.4531 65.459 36.1582 65.3809 35.8809C65.3066 35.5996 65.1934 35.3516 65.041 35.1367C64.8926 34.918 64.7051 34.7461 64.4785 34.6211C64.2559 34.4961 63.9941 34.4336 63.6934 34.4336C63.3965 34.4336 63.1348 34.4961 62.9082 34.6211C62.6855 34.7461 62.498 34.918 62.3457 35.1367C62.1973 35.3516 62.0859 35.5996 62.0117 35.8809C61.9375 36.1582 61.9004 36.4531 61.9004 36.7656ZM69.7812 39.0215L71.5156 33.6602H72.623L70.3438 40H69.6172L69.7812 39.0215ZM68.334 33.6602L70.1211 39.0508L70.2441 40H69.5176L67.2207 33.6602H68.334ZM74.8438 33.6602V40H73.7539V33.6602H74.8438ZM73.6719 31.9785C73.6719 31.8027 73.7246 31.6543 73.8301 31.5332C73.9395 31.4121 74.0996 31.3516 74.3105 31.3516C74.5176 31.3516 74.6758 31.4121 74.7852 31.5332C74.8984 31.6543 74.9551 31.8027 74.9551 31.9785C74.9551 32.1465 74.8984 32.291 74.7852 32.4121C74.6758 32.5293 74.5176 32.5879 74.3105 32.5879C74.0996 32.5879 73.9395 32.5293 73.8301 32.4121C73.7246 32.291 73.6719 32.1465 73.6719 31.9785ZM79.2148 40.1172C78.7734 40.1172 78.373 40.043 78.0137 39.8945C77.6582 39.7422 77.3516 39.5293 77.0938 39.2559C76.8398 38.9824 76.6445 38.6582 76.5078 38.2832C76.3711 37.9082 76.3027 37.498 76.3027 37.0527V36.8066C76.3027 36.291 76.3789 35.832 76.5312 35.4297C76.6836 35.0234 76.8906 34.6797 77.1523 34.3984C77.4141 34.1172 77.7109 33.9043 78.043 33.7598C78.375 33.6152 78.7188 33.543 79.0742 33.543C79.5273 33.543 79.918 33.6211 80.2461 33.7773C80.5781 33.9336 80.8496 34.1523 81.0605 34.4336C81.2715 34.7109 81.4277 35.0391 81.5293 35.418C81.6309 35.793 81.6816 36.2031 81.6816 36.6484V37.1348H76.9473V36.25H80.5977V36.168C80.582 35.8867 80.5234 35.6133 80.4219 35.3477C80.3242 35.082 80.168 34.8633 79.9531 34.6914C79.7383 34.5195 79.4453 34.4336 79.0742 34.4336C78.8281 34.4336 78.6016 34.4863 78.3945 34.5918C78.1875 34.6934 78.0098 34.8457 77.8613 35.0488C77.7129 35.252 77.5977 35.5 77.5156 35.793C77.4336 36.0859 77.3926 36.4238 77.3926 36.8066V37.0527C77.3926 37.3535 77.4336 37.6367 77.5156 37.9023C77.6016 38.1641 77.7246 38.3945 77.8848 38.5938C78.0488 38.793 78.2461 38.9492 78.4766 39.0625C78.7109 39.1758 78.9766 39.2324 79.2734 39.2324C79.6562 39.2324 79.9805 39.1543 80.2461 38.998C80.5117 38.8418 80.7441 38.6328 80.9434 38.3711L81.5996 38.8926C81.4629 39.0996 81.2891 39.2969 81.0781 39.4844C80.8672 39.6719 80.6074 39.8242 80.2988 39.9414C79.9941 40.0586 79.6328 40.1172 79.2148 40.1172ZM89.6621 38.916V35.6523C89.6621 35.4023 89.6113 35.1855 89.5098 35.002C89.4121 34.8145 89.2637 34.6699 89.0645 34.5684C88.8652 34.4668 88.6191 34.416 88.3262 34.416C88.0527 34.416 87.8125 34.4629 87.6055 34.5566C87.4023 34.6504 87.2422 34.7734 87.125 34.9258C87.0117 35.0781 86.9551 35.2422 86.9551 35.418H85.8711C85.8711 35.1914 85.9297 34.9668 86.0469 34.7441C86.1641 34.5215 86.332 34.3203 86.5508 34.1406C86.7734 33.957 87.0391 33.8125 87.3477 33.707C87.6602 33.5977 88.0078 33.543 88.3906 33.543C88.8516 33.543 89.2578 33.6211 89.6094 33.7773C89.9648 33.9336 90.2422 34.1699 90.4414 34.4863C90.6445 34.7988 90.7461 35.1914 90.7461 35.6641V38.6172C90.7461 38.8281 90.7637 39.0527 90.7988 39.291C90.8379 39.5293 90.8945 39.7344 90.9688 39.9062V40H89.8379C89.7832 39.875 89.7402 39.709 89.709 39.502C89.6777 39.291 89.6621 39.0957 89.6621 38.916ZM89.8496 36.1562L89.8613 36.918H88.7656C88.457 36.918 88.1816 36.9434 87.9395 36.9941C87.6973 37.041 87.4941 37.1133 87.3301 37.2109C87.166 37.3086 87.041 37.4316 86.9551 37.5801C86.8691 37.7246 86.8262 37.8945 86.8262 38.0898C86.8262 38.2891 86.8711 38.4707 86.9609 38.6348C87.0508 38.7988 87.1855 38.9297 87.3652 39.0273C87.5488 39.1211 87.7734 39.168 88.0391 39.168C88.3711 39.168 88.6641 39.0977 88.918 38.957C89.1719 38.8164 89.373 38.6445 89.5215 38.4414C89.6738 38.2383 89.7559 38.041 89.7676 37.8496L90.2305 38.3711C90.2031 38.5352 90.1289 38.7168 90.0078 38.916C89.8867 39.1152 89.7246 39.3066 89.5215 39.4902C89.3223 39.6699 89.084 39.8203 88.8066 39.9414C88.5332 40.0586 88.2246 40.1172 87.8809 40.1172C87.4512 40.1172 87.0742 40.0332 86.75 39.8652C86.4297 39.6973 86.1797 39.4727 86 39.1914C85.8242 38.9062 85.7363 38.5879 85.7363 38.2363C85.7363 37.8965 85.8027 37.5977 85.9355 37.3398C86.0684 37.0781 86.2598 36.8613 86.5098 36.6895C86.7598 36.5137 87.0605 36.3809 87.4121 36.291C87.7637 36.2012 88.1562 36.1562 88.5898 36.1562H89.8496ZM93.5352 35.0137V40H92.4512V33.6602H93.4766L93.5352 35.0137ZM93.2773 36.5898L92.8262 36.5723C92.8301 36.1387 92.8945 35.7383 93.0195 35.3711C93.1445 35 93.3203 34.6777 93.5469 34.4043C93.7734 34.1309 94.043 33.9199 94.3555 33.7715C94.6719 33.6191 95.0215 33.543 95.4043 33.543C95.7168 33.543 95.998 33.5859 96.248 33.6719C96.498 33.7539 96.7109 33.8867 96.8867 34.0703C97.0664 34.2539 97.2031 34.4922 97.2969 34.7852C97.3906 35.0742 97.4375 35.4277 97.4375 35.8457V40H96.3477V35.834C96.3477 35.502 96.2988 35.2363 96.2012 35.0371C96.1035 34.834 95.9609 34.6875 95.7734 34.5977C95.5859 34.5039 95.3555 34.457 95.082 34.457C94.8125 34.457 94.5664 34.5137 94.3438 34.627C94.125 34.7402 93.9355 34.8965 93.7754 35.0957C93.6191 35.2949 93.4961 35.5234 93.4062 35.7812C93.3203 36.0352 93.2773 36.3047 93.2773 36.5898ZM103.08 38.7695V31H104.17V40H103.174L103.08 38.7695ZM98.8145 36.9004V36.7773C98.8145 36.293 98.873 35.8535 98.9902 35.459C99.1113 35.0605 99.2812 34.7188 99.5 34.4336C99.7227 34.1484 99.9863 33.9297 100.291 33.7773C100.6 33.6211 100.943 33.543 101.322 33.543C101.721 33.543 102.068 33.6133 102.365 33.7539C102.666 33.8906 102.92 34.0918 103.127 34.3574C103.338 34.6191 103.504 34.9355 103.625 35.3066C103.746 35.6777 103.83 36.0977 103.877 36.5664V37.1055C103.834 37.5703 103.75 37.9883 103.625 38.3594C103.504 38.7305 103.338 39.0469 103.127 39.3086C102.92 39.5703 102.666 39.7715 102.365 39.9121C102.064 40.0488 101.713 40.1172 101.311 40.1172C100.939 40.1172 100.6 40.0371 100.291 39.877C99.9863 39.7168 99.7227 39.4922 99.5 39.2031C99.2812 38.9141 99.1113 38.5742 98.9902 38.1836C98.873 37.7891 98.8145 37.3613 98.8145 36.9004ZM99.9043 36.7773V36.9004C99.9043 37.2168 99.9355 37.5137 99.998 37.791C100.064 38.0684 100.166 38.3125 100.303 38.5234C100.439 38.7344 100.613 38.9004 100.824 39.0215C101.035 39.1387 101.287 39.1973 101.58 39.1973C101.939 39.1973 102.234 39.1211 102.465 38.9688C102.699 38.8164 102.887 38.6152 103.027 38.3652C103.168 38.1152 103.277 37.8438 103.355 37.5508V36.1387C103.309 35.9238 103.24 35.7168 103.15 35.5176C103.064 35.3145 102.951 35.1348 102.811 34.9785C102.674 34.8184 102.504 34.6914 102.301 34.5977C102.102 34.5039 101.865 34.457 101.592 34.457C101.295 34.457 101.039 34.5195 100.824 34.6445C100.613 34.7656 100.439 34.9336 100.303 35.1484C100.166 35.3594 100.064 35.6055 99.998 35.8867C99.9355 36.1641 99.9043 36.4609 99.9043 36.7773ZM111.488 33.6602V34.4922H108.061V33.6602H111.488ZM109.221 32.1191H110.305V38.4297C110.305 38.6445 110.338 38.8066 110.404 38.916C110.471 39.0254 110.557 39.0977 110.662 39.1328C110.768 39.168 110.881 39.1855 111.002 39.1855C111.092 39.1855 111.186 39.1777 111.283 39.1621C111.385 39.1426 111.461 39.127 111.512 39.1152L111.518 40C111.432 40.0273 111.318 40.0527 111.178 40.0762C111.041 40.1035 110.875 40.1172 110.68 40.1172C110.414 40.1172 110.17 40.0645 109.947 39.959C109.725 39.8535 109.547 39.6777 109.414 39.4316C109.285 39.1816 109.221 38.8457 109.221 38.4238V32.1191ZM114.688 39.0215L116.422 33.6602H117.529L115.25 40H114.523L114.688 39.0215ZM113.24 33.6602L115.027 39.0508L115.15 40H114.424L112.127 33.6602H113.24ZM125.24 38.3184C125.24 38.1621 125.205 38.0176 125.135 37.8848C125.068 37.748 124.93 37.625 124.719 37.5156C124.512 37.4023 124.199 37.3047 123.781 37.2227C123.43 37.1484 123.111 37.0605 122.826 36.959C122.545 36.8574 122.305 36.7344 122.105 36.5898C121.91 36.4453 121.76 36.2754 121.654 36.0801C121.549 35.8848 121.496 35.6562 121.496 35.3945C121.496 35.1445 121.551 34.9082 121.66 34.6855C121.773 34.4629 121.932 34.2656 122.135 34.0938C122.342 33.9219 122.59 33.7871 122.879 33.6895C123.168 33.5918 123.49 33.543 123.846 33.543C124.354 33.543 124.787 33.6328 125.146 33.8125C125.506 33.9922 125.781 34.2324 125.973 34.5332C126.164 34.8301 126.26 35.1602 126.26 35.5234H125.176C125.176 35.3477 125.123 35.1777 125.018 35.0137C124.916 34.8457 124.766 34.707 124.566 34.5977C124.371 34.4883 124.131 34.4336 123.846 34.4336C123.545 34.4336 123.301 34.4805 123.113 34.5742C122.93 34.6641 122.795 34.7793 122.709 34.9199C122.627 35.0605 122.586 35.209 122.586 35.3652C122.586 35.4824 122.605 35.5879 122.645 35.6816C122.688 35.7715 122.762 35.8555 122.867 35.9336C122.973 36.0078 123.121 36.0781 123.312 36.1445C123.504 36.2109 123.748 36.2773 124.045 36.3438C124.564 36.4609 124.992 36.6016 125.328 36.7656C125.664 36.9297 125.914 37.1309 126.078 37.3691C126.242 37.6074 126.324 37.8965 126.324 38.2363C126.324 38.5137 126.266 38.7676 126.148 38.998C126.035 39.2285 125.869 39.4277 125.65 39.5957C125.436 39.7598 125.178 39.8887 124.877 39.9824C124.58 40.0723 124.246 40.1172 123.875 40.1172C123.316 40.1172 122.844 40.0176 122.457 39.8184C122.07 39.6191 121.777 39.3613 121.578 39.0449C121.379 38.7285 121.279 38.3945 121.279 38.043H122.369C122.385 38.3398 122.471 38.5762 122.627 38.752C122.783 38.9238 122.975 39.0469 123.201 39.1211C123.428 39.1914 123.652 39.2266 123.875 39.2266C124.172 39.2266 124.42 39.1875 124.619 39.1094C124.822 39.0312 124.977 38.9238 125.082 38.7871C125.188 38.6504 125.24 38.4941 125.24 38.3184ZM128.832 31V40H127.748V31H128.832ZM128.574 36.5898L128.123 36.5723C128.127 36.1387 128.191 35.7383 128.316 35.3711C128.441 35 128.617 34.6777 128.844 34.4043C129.07 34.1309 129.34 33.9199 129.652 33.7715C129.969 33.6191 130.318 33.543 130.701 33.543C131.014 33.543 131.295 33.5859 131.545 33.6719C131.795 33.7539 132.008 33.8867 132.184 34.0703C132.363 34.2539 132.5 34.4922 132.594 34.7852C132.688 35.0742 132.734 35.4277 132.734 35.8457V40H131.645V35.834C131.645 35.502 131.596 35.2363 131.498 35.0371C131.4 34.834 131.258 34.6875 131.07 34.5977C130.883 34.5039 130.652 34.457 130.379 34.457C130.109 34.457 129.863 34.5137 129.641 34.627C129.422 34.7402 129.232 34.8965 129.072 35.0957C128.916 35.2949 128.793 35.5234 128.703 35.7812C128.617 36.0352 128.574 36.3047 128.574 36.5898ZM134.07 36.9004V36.7656C134.07 36.3086 134.137 35.8848 134.27 35.4941C134.402 35.0996 134.594 34.7578 134.844 34.4688C135.094 34.1758 135.396 33.9492 135.752 33.7891C136.107 33.625 136.506 33.543 136.947 33.543C137.393 33.543 137.793 33.625 138.148 33.7891C138.508 33.9492 138.812 34.1758 139.062 34.4688C139.316 34.7578 139.51 35.0996 139.643 35.4941C139.775 35.8848 139.842 36.3086 139.842 36.7656V36.9004C139.842 37.3574 139.775 37.7812 139.643 38.1719C139.51 38.5625 139.316 38.9043 139.062 39.1973C138.812 39.4863 138.51 39.7129 138.154 39.877C137.803 40.0371 137.404 40.1172 136.959 40.1172C136.514 40.1172 136.113 40.0371 135.758 39.877C135.402 39.7129 135.098 39.4863 134.844 39.1973C134.594 38.9043 134.402 38.5625 134.27 38.1719C134.137 37.7812 134.07 37.3574 134.07 36.9004ZM135.154 36.7656V36.9004C135.154 37.2168 135.191 37.5156 135.266 37.7969C135.34 38.0742 135.451 38.3203 135.6 38.5352C135.752 38.75 135.941 38.9199 136.168 39.0449C136.395 39.166 136.658 39.2266 136.959 39.2266C137.256 39.2266 137.516 39.166 137.738 39.0449C137.965 38.9199 138.152 38.75 138.301 38.5352C138.449 38.3203 138.561 38.0742 138.635 37.7969C138.713 37.5156 138.752 37.2168 138.752 36.9004V36.7656C138.752 36.4531 138.713 36.1582 138.635 35.8809C138.561 35.5996 138.447 35.3516 138.295 35.1367C138.146 34.918 137.959 34.7461 137.732 34.6211C137.51 34.4961 137.248 34.4336 136.947 34.4336C136.65 34.4336 136.389 34.4961 136.162 34.6211C135.939 34.7461 135.752 34.918 135.6 35.1367C135.451 35.3516 135.34 35.5996 135.266 35.8809C135.191 36.1582 135.154 36.4531 135.154 36.7656ZM142.807 38.875L144.436 33.6602H145.15L145.01 34.6973L143.352 40H142.654L142.807 38.875ZM141.711 33.6602L143.1 38.9336L143.199 40H142.467L140.627 33.6602H141.711ZM146.709 38.8926L148.033 33.6602H149.111L147.271 40H146.545L146.709 38.8926ZM145.309 33.6602L146.902 38.7871L147.084 40H146.393L144.688 34.6855L144.547 33.6602H145.309ZM154.285 31V40H153.201V31H154.285ZM154.027 36.5898L153.576 36.5723C153.58 36.1387 153.645 35.7383 153.77 35.3711C153.895 35 154.07 34.6777 154.297 34.4043C154.523 34.1309 154.793 33.9199 155.105 33.7715C155.422 33.6191 155.771 33.543 156.154 33.543C156.467 33.543 156.748 33.5859 156.998 33.6719C157.248 33.7539 157.461 33.8867 157.637 34.0703C157.816 34.2539 157.953 34.4922 158.047 34.7852C158.141 35.0742 158.188 35.4277 158.188 35.8457V40H157.098V35.834C157.098 35.502 157.049 35.2363 156.951 35.0371C156.854 34.834 156.711 34.6875 156.523 34.5977C156.336 34.5039 156.105 34.457 155.832 34.457C155.562 34.457 155.316 34.5137 155.094 34.627C154.875 34.7402 154.686 34.8965 154.525 35.0957C154.369 35.2949 154.246 35.5234 154.156 35.7812C154.07 36.0352 154.027 36.3047 154.027 36.5898ZM162.441 40.1172C162 40.1172 161.6 40.043 161.24 39.8945C160.885 39.7422 160.578 39.5293 160.32 39.2559C160.066 38.9824 159.871 38.6582 159.734 38.2832C159.598 37.9082 159.529 37.498 159.529 37.0527V36.8066C159.529 36.291 159.605 35.832 159.758 35.4297C159.91 35.0234 160.117 34.6797 160.379 34.3984C160.641 34.1172 160.938 33.9043 161.27 33.7598C161.602 33.6152 161.945 33.543 162.301 33.543C162.754 33.543 163.145 33.6211 163.473 33.7773C163.805 33.9336 164.076 34.1523 164.287 34.4336C164.498 34.7109 164.654 35.0391 164.756 35.418C164.857 35.793 164.908 36.2031 164.908 36.6484V37.1348H160.174V36.25H163.824V36.168C163.809 35.8867 163.75 35.6133 163.648 35.3477C163.551 35.082 163.395 34.8633 163.18 34.6914C162.965 34.5195 162.672 34.4336 162.301 34.4336C162.055 34.4336 161.828 34.4863 161.621 34.5918C161.414 34.6934 161.236 34.8457 161.088 35.0488C160.939 35.252 160.824 35.5 160.742 35.793C160.66 36.0859 160.619 36.4238 160.619 36.8066V37.0527C160.619 37.3535 160.66 37.6367 160.742 37.9023C160.828 38.1641 160.951 38.3945 161.111 38.5938C161.275 38.793 161.473 38.9492 161.703 39.0625C161.938 39.1758 162.203 39.2324 162.5 39.2324C162.883 39.2324 163.207 39.1543 163.473 38.998C163.738 38.8418 163.971 38.6328 164.17 38.3711L164.826 38.8926C164.689 39.0996 164.516 39.2969 164.305 39.4844C164.094 39.6719 163.834 39.8242 163.525 39.9414C163.221 40.0586 162.859 40.1172 162.441 40.1172ZM167.258 34.6562V40H166.174V33.6602H167.229L167.258 34.6562ZM169.238 33.625L169.232 34.6328C169.143 34.6133 169.057 34.6016 168.975 34.5977C168.896 34.5898 168.807 34.5859 168.705 34.5859C168.455 34.5859 168.234 34.625 168.043 34.7031C167.852 34.7812 167.689 34.8906 167.557 35.0312C167.424 35.1719 167.318 35.3398 167.24 35.5352C167.166 35.7266 167.117 35.9375 167.094 36.168L166.789 36.3438C166.789 35.9609 166.826 35.6016 166.9 35.2656C166.979 34.9297 167.098 34.6328 167.258 34.375C167.418 34.1133 167.621 33.9102 167.867 33.7656C168.117 33.6172 168.414 33.543 168.758 33.543C168.836 33.543 168.926 33.5527 169.027 33.5723C169.129 33.5879 169.199 33.6055 169.238 33.625ZM172.754 40.1172C172.312 40.1172 171.912 40.043 171.553 39.8945C171.197 39.7422 170.891 39.5293 170.633 39.2559C170.379 38.9824 170.184 38.6582 170.047 38.2832C169.91 37.9082 169.842 37.498 169.842 37.0527V36.8066C169.842 36.291 169.918 35.832 170.07 35.4297C170.223 35.0234 170.43 34.6797 170.691 34.3984C170.953 34.1172 171.25 33.9043 171.582 33.7598C171.914 33.6152 172.258 33.543 172.613 33.543C173.066 33.543 173.457 33.6211 173.785 33.7773C174.117 33.9336 174.389 34.1523 174.6 34.4336C174.811 34.7109 174.967 35.0391 175.068 35.418C175.17 35.793 175.221 36.2031 175.221 36.6484V37.1348H170.486V36.25H174.137V36.168C174.121 35.8867 174.062 35.6133 173.961 35.3477C173.863 35.082 173.707 34.8633 173.492 34.6914C173.277 34.5195 172.984 34.4336 172.613 34.4336C172.367 34.4336 172.141 34.4863 171.934 34.5918C171.727 34.6934 171.549 34.8457 171.4 35.0488C171.252 35.252 171.137 35.5 171.055 35.793C170.973 36.0859 170.932 36.4238 170.932 36.8066V37.0527C170.932 37.3535 170.973 37.6367 171.055 37.9023C171.141 38.1641 171.264 38.3945 171.424 38.5938C171.588 38.793 171.785 38.9492 172.016 39.0625C172.25 39.1758 172.516 39.2324 172.812 39.2324C173.195 39.2324 173.52 39.1543 173.785 38.998C174.051 38.8418 174.283 38.6328 174.482 38.3711L175.139 38.8926C175.002 39.0996 174.828 39.2969 174.617 39.4844C174.406 39.6719 174.146 39.8242 173.838 39.9414C173.533 40.0586 173.172 40.1172 172.754 40.1172Z"/>
</svg>
